<svg xmlns="http://www.w3.org/2000/svg" xmlns:xlink="http://www.w3.org/1999/xlink" width="318" height="112.508" viewBox="0 0 318 112.508"><defs><filter id="a" x="83.648" y="0" width="158.039" height="39.914" filterUnits="userSpaceOnUse"><feOffset dy="3" input="SourceAlpha"/><feGaussianBlur stdDeviation="3" result="b"/><feFlood flood-opacity="0.161"/><feComposite operator="in" in2="b"/><feComposite in="SourceGraphic"/></filter><filter id="c" x="0" y="29.662" width="67.345" height="80.911" filterUnits="userSpaceOnUse"><feOffset dy="3" input="SourceAlpha"/><feGaussianBlur stdDeviation="3" result="d"/><feFlood flood-opacity="0.161"/><feComposite operator="in" in2="d"/><feComposite in="SourceGraphic"/></filter><filter id="e" x="50.958" y="44.528" width="51.59" height="59.964" filterUnits="userSpaceOnUse"><feOffset dy="3" input="SourceAlpha"/><feGaussianBlur stdDeviation="3" result="f"/><feFlood flood-opacity="0.161"/><feComposite operator="in" in2="f"/><feComposite in="SourceGraphic"/></filter><filter id="g" x="87.262" y="53.171" width="39.679" height="50.034" filterUnits="userSpaceOnUse"><feOffset dy="3" input="SourceAlpha"/><feGaussianBlur stdDeviation="3" result="h"/><feFlood flood-opacity="0.161"/><feComposite operator="in" in2="h"/><feComposite in="SourceGraphic"/></filter><filter id="i" x="110.279" y="41.353" width="30.496" height="61.746" filterUnits="userSpaceOnUse"><feOffset dy="3" input="SourceAlpha"/><feGaussianBlur stdDeviation="3" result="j"/><feFlood flood-opacity="0.161"/><feComposite operator="in" in2="j"/><feComposite in="SourceGraphic"/></filter><filter id="k" x="125.655" y="52.996" width="42.682" height="50.887" filterUnits="userSpaceOnUse"><feOffset dy="3" input="SourceAlpha"/><feGaussianBlur stdDeviation="3" result="l"/><feFlood flood-opacity="0.161"/><feComposite operator="in" in2="l"/><feComposite in="SourceGraphic"/></filter><filter id="m" x="152.563" y="46.295" width="39.289" height="57.013" filterUnits="userSpaceOnUse"><feOffset dy="3" input="SourceAlpha"/><feGaussianBlur stdDeviation="3" result="n"/><feFlood flood-opacity="0.161"/><feComposite operator="in" in2="n"/><feComposite in="SourceGraphic"/></filter><filter id="o" x="175.64" y="53.041" width="66.504" height="50.667" filterUnits="userSpaceOnUse"><feOffset dy="3" input="SourceAlpha"/><feGaussianBlur stdDeviation="3" result="p"/><feFlood flood-opacity="0.161"/><feComposite operator="in" in2="p"/><feComposite in="SourceGraphic"/></filter><filter id="q" x="227.761" y="53.521" width="48.163" height="50.693" filterUnits="userSpaceOnUse"><feOffset dy="3" input="SourceAlpha"/><feGaussianBlur stdDeviation="3" result="r"/><feFlood flood-opacity="0.161"/><feComposite operator="in" in2="r"/><feComposite in="SourceGraphic"/></filter><filter id="s" x="259.109" y="42.772" width="58.891" height="69.736" filterUnits="userSpaceOnUse"><feOffset dy="3" input="SourceAlpha"/><feGaussianBlur stdDeviation="3" result="t"/><feFlood flood-opacity="0.161"/><feComposite operator="in" in2="t"/><feComposite in="SourceGraphic"/></filter></defs><g transform="translate(-25.612 -178.379)"><g transform="matrix(1, 0, 0, 1, 25.61, 178.38)" filter="url(#a)"><path d="M19.424-10.181a12.875,12.875,0,0,1-1.113,5.522A8.384,8.384,0,0,1,15.125-1,8.813,8.813,0,0,1,10.371.293,8.873,8.873,0,0,1,5.64-.981a8.466,8.466,0,0,1-3.223-3.64A12.507,12.507,0,0,1,1.26-10.063v-1.055A12.808,12.808,0,0,1,2.4-16.663,8.453,8.453,0,0,1,5.6-20.339a8.824,8.824,0,0,1,4.739-1.282,8.824,8.824,0,0,1,4.739,1.282,8.453,8.453,0,0,1,3.208,3.677,12.771,12.771,0,0,1,1.135,5.53Zm-4.453-.967a8.975,8.975,0,0,0-1.2-5.1,3.914,3.914,0,0,0-3.428-1.743,3.916,3.916,0,0,0-3.413,1.721,8.873,8.873,0,0,0-1.216,5.046v1.04a9.088,9.088,0,0,0,1.2,5.068,3.9,3.9,0,0,0,3.457,1.8,3.869,3.869,0,0,0,3.4-1.736,9.035,9.035,0,0,0,1.2-5.061Zm24.258,5L42.1-21.328h4.38L41.748,0H37.324L33.853-14.268,30.381,0H25.957L21.226-21.328h4.38L28.491-6.182l3.516-15.146h3.721ZM66.2,0H61.8L53.247-14.033V0H48.853V-21.328h4.395L61.816-7.266V-21.328H66.2Zm3.838,0V-21.328H76.6a9.966,9.966,0,0,1,5.032,1.267,8.836,8.836,0,0,1,3.464,3.6,11.115,11.115,0,0,1,1.245,5.31v.981a11.146,11.146,0,0,1-1.223,5.288,8.76,8.76,0,0,1-3.45,3.589A10.041,10.041,0,0,1,76.641,0Zm4.395-17.769V-3.53h2.124a4.772,4.772,0,0,0,3.94-1.685,7.612,7.612,0,0,0,1.392-4.819v-1.128a7.733,7.733,0,0,0-1.348-4.929,4.756,4.756,0,0,0-3.94-1.677ZM101.572-4.395H93.867L92.4,0H87.729l7.939-21.328h4.072L107.725,0h-4.673Zm-6.519-3.56h5.332l-2.681-7.983Zm19.819-3.765,4.438-9.609h4.8l-7,13.594V0h-4.468V-7.734l-7-13.594h4.819ZM136.89-5.6a2.255,2.255,0,0,0-.879-1.912,11.528,11.528,0,0,0-3.164-1.406,22.43,22.43,0,0,1-3.618-1.458q-3.633-1.963-3.633-5.288a5.15,5.15,0,0,1,.974-3.083,6.354,6.354,0,0,1,2.8-2.117,10.531,10.531,0,0,1,4.094-.762,9.585,9.585,0,0,1,4.072.828,6.484,6.484,0,0,1,2.776,2.336,6.114,6.114,0,0,1,.989,3.428H136.9a2.876,2.876,0,0,0-.923-2.278,3.794,3.794,0,0,0-2.593-.813,4.053,4.053,0,0,0-2.5.681,2.148,2.148,0,0,0-.894,1.794,2.058,2.058,0,0,0,1.047,1.743,11.833,11.833,0,0,0,3.083,1.318,13.323,13.323,0,0,1,5.464,2.8,5.572,5.572,0,0,1,1.714,4.16A5.133,5.133,0,0,1,139.2-1.282a9.17,9.17,0,0,1-5.64,1.575,10.89,10.89,0,0,1-4.482-.9A7.093,7.093,0,0,1,126-3.076a6.321,6.321,0,0,1-1.062-3.633h4.409q0,3.53,4.219,3.53a4.1,4.1,0,0,0,2.446-.637A2.073,2.073,0,0,0,136.89-5.6Z" transform="translate(91.39 27.62)" fill="#fff"/></g><g transform="translate(34.613 27)"><g transform="translate(-0.001 187.041)"><g transform="matrix(1, 0, 0, 1, -9, -35.66)" filter="url(#c)"><path d="M49.257,245.957c.264.611-.084,1.224-.783,1.575a36.1,36.1,0,0,1-18.335,5.115c-18,.046-30.09-12.5-30.139-31.378s11.977-31.487,29.976-31.533a36.1,36.1,0,0,1,18.362,5.021c.7.348,1.051.958.791,1.571l-3.539,9.356a1.7,1.7,0,0,1-2.487,1.055,29.045,29.045,0,0,0-15.213-3.631c-9.55.025-14.665,6.225-15.324,18.129-.4,7.182,2.29,16.587,14.086,16.557a29.048,29.048,0,0,0,15.194-3.709,1.7,1.7,0,0,1,2.493,1.042Z" transform="translate(9 -154.07)" fill="#fff"/></g><g transform="matrix(1, 0, 0, 1, -9, -35.66)" filter="url(#e)"><path d="M220.116,250.828a.873.873,0,0,1,.931.765l1.119,11.418a9.167,9.167,0,0,1,6.981-3.88c6.783-.665,11.173,2.786,11.816,9.343l2.022,20.632a.873.873,0,0,1-.765.931l-9.949.975a.79.79,0,0,1-.874-.77l-1.739-17.749c-.222-2.261-1.367-3.461-3.119-3.29a3.807,3.807,0,0,0-3.42,3.531l1.778,18.145a.874.874,0,0,1-.765.931l-9.949.975a.874.874,0,0,1-.931-.765l-3.85-39.285a.874.874,0,0,1,.765-.931Z" transform="translate(-149.44 -200.3)" fill="#fff"/></g><g transform="matrix(1, 0, 0, 1, -9, -35.66)" filter="url(#g)"><path d="M379.543,288a.777.777,0,0,1,.711.871l-.74,7.346a.776.776,0,0,1-.871.711l-1.469-.148a5.4,5.4,0,0,0-5.042,1.89l-1.907,18.931a.873.873,0,0,1-.933.762l-9.946-1a.873.873,0,0,1-.762-.933l2.959-29.386a.865.865,0,0,1,.927-.706l6.386.643c.452.046.7.47.819.939l.6,2.572a9.667,9.667,0,0,1,7.8-2.639Z" transform="translate(-262.32 -227.17)" fill="#fff"/></g><g transform="matrix(1, 0, 0, 1, -9, -35.66)" filter="url(#i)"><path d="M465.657,243.61c.009,3.351-2.485,5.629-6.233,5.639s-6.254-2.256-6.262-5.607c-.009-3.522,2.484-5.857,6.233-5.866s6.253,2.312,6.263,5.834m-1.176,6.648a.865.865,0,0,1,.854.793l.077,29.591a.874.874,0,0,1-.85.854l-10,.026a.873.873,0,0,1-.854-.85l-.077-29.591a.866.866,0,0,1,.85-.8Z" transform="translate(-333.88 -190.42)" fill="#fff"/></g><g transform="matrix(1, 0, 0, 1, -9, -35.66)" filter="url(#k)"><path d="M519.558,307.8a.47.47,0,0,1,.738-.229c2.218,1.3,4.607,2.317,6.538,2.312,1.193.111,1.986-.573,1.984-1.425-.007-2.9-12.443-1.956-12.471-12.633-.016-6.077,5.142-10.18,12.867-10.2a22.292,22.292,0,0,1,11.14,3.209c.284.226.456.51.343.794l-2.879,6.71a.47.47,0,0,1-.738.229,13.055,13.055,0,0,0-6.538-2.312c-1.193-.11-1.987.46-1.984,1.368.008,3.01,12.443,1.9,12.471,12.69.016,6.077-4.972,10.18-12.526,10.2a24.093,24.093,0,0,1-11.481-3.208.872.872,0,0,1-.343-.908Z" transform="translate(-381.69 -226.62)" fill="#fff"/></g><g transform="matrix(1, 0, 0, 1, -9, -35.66)" filter="url(#m)"><path d="M647.433,266.489a.792.792,0,0,1,.772.873l-1.15,5.424a.915.915,0,0,1-.93.766l-3.618-.348-2.225,23.123a.873.873,0,0,1-.93.766l-9.95-.957a.874.874,0,0,1-.766-.93l2.225-23.123-3.222-.31a.812.812,0,0,1-.716-.868l.528-5.484a.826.826,0,0,1,.873-.772l3.222.31.593-6.162a.912.912,0,0,1,.924-.71l10.043,0a.825.825,0,0,1,.772.873l-.685,7.123Z" transform="translate(-465.36 -205.79)" fill="#fff"/></g><g transform="matrix(1, 0, 0, 1, -9, -35.66)" filter="url(#o)"><path d="M731.153,288.8c1.86-1.948,5.179-3.07,8.984-2.988,4.088.088,7.176,1.8,8.364,4.668a12.345,12.345,0,0,1,9.92-4.274c7.609.164,11.994,4.917,11.826,12.753l-.4,18.738a.719.719,0,0,1-.812.778l-10.108-.218a.719.719,0,0,1-.778-.812l.367-17.035c-.065-2.274-1-3.6-2.705-3.637a3.664,3.664,0,0,0-3.76,3.1l-.375,17.433a.719.719,0,0,1-.812.778l-10.107-.218a.718.718,0,0,1-.778-.812l.367-17.035c.053-2.442-1-3.6-2.705-3.637a3.808,3.808,0,0,0-3.816,3.1l-.375,17.433a.718.718,0,0,1-.812.778l-10.107-.218a.719.719,0,0,1-.778-.812l.638-29.641a.719.719,0,0,1,.812-.778l6.36.137a.922.922,0,0,1,.9.587Z" transform="translate(-537.11 -226.76)" fill="#fff"/></g><g transform="matrix(1, 0, 0, 1, -9, -35.66)" filter="url(#q)"><path d="M939.63,291.565a.891.891,0,0,1,.331-1.066,23.827,23.827,0,0,1,12.454-2.7c9.817.428,14.131,5.79,13.638,17.081l-.641,14.7a.874.874,0,0,1-.889.814l-7.149-.312a.926.926,0,0,1-.871-.891l-.33-1.549c-1.959,1.9-5.758,2.989-9.9,2.809-6.526-.284-10.655-4.672-10.326-10.911.3-5.558,4.773-9.059,11.185-8.779,3.291.143,6.189,1.464,7.245,3.329l.1-2.383c.107-2.44-1.583-4.105-4.193-4.219a14.883,14.883,0,0,0-6.888,1.519c-.291.158-.622-.084-.831-.491Zm14.5,18.142a4.21,4.21,0,0,0-3.059-1.555,2.1,2.1,0,0,0-2.472,1.939c-.055,1.248.876,2.085,2.294,2.147a4.208,4.208,0,0,0,3.183-1.282Z" transform="translate(-699.17 -228.26)" fill="#fff"/></g><g transform="matrix(1, 0, 0, 1, -9, -35.66)" filter="url(#s)"><path d="M1085.135,295.316a41.2,41.2,0,0,1-12.151-1.368,1.289,1.289,0,0,1-.907-1.537l1.354-5.8a1.294,1.294,0,0,1,1.611-.948,26.312,26.312,0,0,0,7.921,1.109,14.572,14.572,0,0,0,1.936-.2,6.429,6.429,0,0,0,4.524-2.426,5.325,5.325,0,0,0,1.009-4.237c-.708-3.784-4.736-4.488-9-5.233-6.491-1.134-14.57-2.546-16.437-12.526a12.909,12.909,0,0,1,3.031-11.22c2.947-3.377,7.585-5.738,13.411-6.828a29.534,29.534,0,0,1,4.239-.46,37.7,37.7,0,0,1,11.685,1.4,1.288,1.288,0,0,1,.887,1.523l-1.315,5.8a1.3,1.3,0,0,1-1.62.953,25.388,25.388,0,0,0-7.723-1.05,15.833,15.833,0,0,0-2.12.223,6.489,6.489,0,0,0-4.592,2.393,5.234,5.234,0,0,0-.959,4.174c.725,3.872,4.8,4.575,9.118,5.319,8.192,1.412,14.6,3.232,16.338,12.538a13.074,13.074,0,0,1-2.876,11.218c-2.832,3.337-7.32,5.661-12.98,6.72a30.549,30.549,0,0,1-4.383.472" transform="translate(-796.63 -194.84)" fill="#fff"/></g></g></g></g></svg>